HIERARCHY
ROOT Hips
{
	OFFSET -0.001795 -0.223333 0.028219
	CHANNELS 6 Xposition Yposition Zposition Zrotation Yrotation Xrotation 
	JOINT LeftUpLeg
	{
		OFFSET 0.069520 -0.091406 -0.006815
		CHANNELS 3 Zrotation Yrotation Xrotation
		JOINT LeftLeg
		{
			OFFSET 0.034277 -0.375199 -0.004496
			CHANNELS 3 Zrotation Yrotation Xrotation
			JOINT LeftFoot
			{
				OFFSET -0.013596 -0.397961 -0.043693
				CHANNELS 3 Zrotation Yrotation Xrotation
				JOINT LeftToe
				{
					OFFSET 0.026358 -0.055791 0.119288
					CHANNELS 3 Zrotation Yrotation Xrotation
					End Site
					{
						OFFSET 0.000000 0.000000 0.000000
					}
				}
			}
		}
	}
	JOINT RightUpLeg
	{
		OFFSET -0.067670 -0.090522 -0.004320
		CHANNELS 3 Zrotation Yrotation Xrotation
		JOINT RightLeg
		{
			OFFSET -0.038290 -0.382569 -0.008850
			CHANNELS 3 Zrotation Yrotation Xrotation
			JOINT RightFoot
			{
				OFFSET 0.015774 -0.398415 -0.042312
				CHANNELS 3 Zrotation Yrotation Xrotation
				JOINT RightToe
				{
					OFFSET -0.025372 -0.048144 0.123348
					CHANNELS 3 Zrotation Yrotation Xrotation
					End Site
					{
						OFFSET 0.000000 0.000000 0.000000
					}
				}
			}
		}
	}
	JOINT Spine
	{
		OFFSET -0.002533 0.108963 -0.026696
		CHANNELS 3 Zrotation Yrotation Xrotation
		JOINT Spine1
		{
			OFFSET 0.005487 0.135180 0.001092
			CHANNELS 3 Zrotation Yrotation Xrotation
			JOINT Spine2
			{
				OFFSET 0.001457 0.052922 0.025425
				CHANNELS 3 Zrotation Yrotation Xrotation
				JOINT Neck
				{
					OFFSET -0.002778 0.213870 -0.042857
					CHANNELS 3 Zrotation Yrotation Xrotation
					JOINT Head
					{
						OFFSET 0.005152 0.064970 0.051349
						CHANNELS 3 Zrotation Yrotation Xrotation
						End Site
						{
							OFFSET 0.000000 0.000000 0.000000
						}
					}
				}
				JOINT LeftShoulder
				{
					OFFSET 0.078845 0.121749 -0.034090
					CHANNELS 3 Zrotation Yrotation Xrotation
					JOINT LeftArm
					{
						OFFSET 0.090977 0.030469 -0.008868
						CHANNELS 3 Zrotation Yrotation Xrotation
						JOINT LeftForeArm
						{
							OFFSET 0.259612 -0.012772 -0.027456
							CHANNELS 3 Zrotation Yrotation Xrotation
							JOINT LeftHand
							{
								OFFSET 0.249234 0.008986 -0.001171
								CHANNELS 3 Zrotation Yrotation Xrotation
								End Site
								{
									OFFSET 0.000000 0.000000 0.000000
								}
							}
						}
					}
				}
				JOINT RightShoulder
				{
					OFFSET -0.081759 0.118833 -0.038615
					CHANNELS 3 Zrotation Yrotation Xrotation
					JOINT RightArm
					{
						OFFSET -0.096012 0.032551 -0.009143
						CHANNELS 3 Zrotation Yrotation Xrotation
						JOINT RightForeArm
						{
							OFFSET -0.253742 -0.013329 -0.021401
							CHANNELS 3 Zrotation Yrotation Xrotation
							JOINT RightHand
							{
								OFFSET -0.255298 0.007772 -0.005559
								CHANNELS 3 Zrotation Yrotation Xrotation
								End Site
								{
									OFFSET 0.000000 0.000000 0.000000
								}
							}
						}
					}
				}
			}
		}
	}
}
MOTION
Frames: 16
Frame Time: 0.050000
0.022476 0.949362 -0.018420 -2.040344 -1.473511 3.042486 5.725228 0.066165 3.777787 -1.521826 0.368550 -9.325823 5.118640 13.218935 15.709335 0.000000 0.000000 0.000000 -1.190839 -0.067252 1.186789 -0.809511 -0.232344 -6.831524 -1.399667 -8.848361 15.883093 0.000000 0.000000 0.000000 -1.519860 0.034224 -0.188687 2.153157 0.393633 -31.104552 -3.383174 -2.327984 30.729512 6.411415 -3.646207 -19.349816 0.000000 0.000000 0.000000 -12.507259 9.357498 -4.640157 -49.644938 -4.627989 -6.417013 -8.177319 -33.374804 4.735661 0.000000 0.000000 0.000000 -18.592386 0.368528 1.082596 2.006593 42.453212 -3.403407 -113.019050 17.492227 -24.105841 0.000000 0.000000 0.000000 
0.022820 0.949403 -0.018712 -2.136928 -1.764410 3.060536 5.785250 0.070574 3.837125 -1.372726 0.369975 -9.461014 5.338616 13.525256 15.804863 0.000000 0.000000 0.000000 -1.215477 -0.061215 1.140016 -0.759410 -0.238116 -6.921367 -1.247455 -8.607233 15.790014 0.000000 0.000000 0.000000 -1.660595 0.033592 -0.065525 2.415002 0.348595 -31.087507 -3.311389 -2.254496 30.640446 6.378100 -3.582114 -19.754173 0.000000 0.000000 0.000000 -12.495886 9.422018 -4.660336 -49.177425 -4.578586 -6.376896 -8.201312 -33.640657 4.783851 0.000000 0.000000 0.000000 -18.275145 0.536109 1.125007 2.324397 42.937687 -3.380252 -112.305468 16.940359 -23.047196 0.000000 0.000000 0.000000 
0.023156 0.949625 -0.018891 -2.167465 -1.854336 3.112454 5.909622 0.072937 4.016388 -1.501821 0.382369 -9.792305 5.343770 13.558188 16.106327 0.000000 0.000000 0.000000 -1.247938 -0.059644 1.142744 -0.691795 -0.254890 -7.246618 -1.232087 -8.651034 16.013944 0.000000 0.000000 0.000000 -1.887335 0.035632 0.033534 2.678108 0.303570 -31.058863 -3.177305 -2.207480 30.503906 6.205235 -3.431896 -19.962700 0.000000 0.000000 0.000000 -12.346681 9.576755 -4.724342 -48.986675 -4.695657 -6.290052 -8.323154 -34.315182 4.933859 0.000000 0.000000 0.000000 -17.747683 0.605806 1.129074 3.052003 43.620973 -3.230527 -111.861604 16.269290 -21.820799 0.000000 0.000000 0.000000 
0.023450 0.950034 -0.018838 -2.276707 -1.839814 3.087974 6.057310 0.068321 4.085924 -1.597527 0.385856 -9.843179 5.416919 13.651080 15.966472 0.000000 0.000000 0.000000 -1.146670 -0.063559 1.134609 -0.628914 -0.259404 -7.294247 -1.267880 -8.707565 16.003448 0.000000 0.000000 0.000000 -2.095849 0.035914 0.186393 3.007368 0.240872 -30.970600 -3.113887 -2.062341 30.395059 5.956523 -3.232946 -19.981451 0.000000 0.000000 0.000000 -12.095172 9.623592 -4.747820 -48.725128 -4.722102 -6.231871 -8.746125 -35.889582 5.316012 0.000000 0.000000 0.000000 -16.909120 0.816638 1.112916 4.032358 43.905609 -2.932512 -111.710226 15.633949 -20.665707 0.000000 0.000000 0.000000 
0.023686 0.950226 -0.018499 -2.337835 -1.675894 3.032456 6.225589 0.063924 4.256175 -1.724324 0.391712 -10.038162 5.322982 13.552304 16.144943 0.000000 0.000000 0.000000 -1.123406 -0.085724 1.363873 -0.591421 -0.281077 -7.759312 -1.163074 -8.563446 16.252312 0.000000 0.000000 0.000000 -2.232389 0.039214 0.148405 3.236087 0.182975 -30.703093 -3.063487 -1.925720 30.171709 5.729447 -3.025418 -20.057230 0.000000 0.000000 0.000000 -12.047692 9.844676 -4.893536 -48.670653 -4.499504 -6.285427 -9.609297 -38.376356 6.034803 0.000000 0.000000 0.000000 -15.861260 0.901691 1.057767 5.566415 44.487131 -2.460518 -112.371082 15.383553 -20.180264 0.000000 0.000000 0.000000 
0.023927 0.950284 -0.017901 -2.480281 -1.483669 2.846806 6.531859 0.058240 4.586063 -1.801307 0.396810 -10.308359 5.320093 13.590391 16.324715 0.000000 0.000000 0.000000 -1.079049 -0.106184 1.557128 -0.527283 -0.284940 -7.787354 -1.242747 -8.713932 16.436797 0.000000 0.000000 0.000000 -2.308926 0.040050 0.109419 3.315382 0.148548 -30.376857 -2.978058 -1.794517 29.941244 5.677689 -2.911684 -20.276129 0.000000 0.000000 0.000000 -11.985327 9.952043 -4.981708 -48.700182 -4.176376 -6.382276 -10.893484 -41.145827 7.008349 0.000000 0.000000 0.000000 -14.802773 1.086469 1.026355 7.224637 44.563643 -1.903543 -113.416128 15.763723 -20.760310 0.000000 0.000000 0.000000 
0.024204 0.950261 -0.017172 -2.510899 -1.392549 2.625528 6.716465 0.058487 4.848644 -1.901536 0.395717 -10.194735 5.276710 13.521238 16.171265 0.000000 0.000000 0.000000 -1.155405 -0.129722 1.850126 -0.432213 -0.296676 -7.986302 -1.334874 -8.890810 16.577903 0.000000 0.000000 0.000000 -2.458932 0.042941 0.022022 3.389668 0.116034 -30.067109 -2.849241 -1.623071 29.731114 5.527280 -2.749502 -20.410490 0.000000 0.000000 0.000000 -12.098293 10.219502 -5.166979 -48.701567 -3.914246 -6.457514 -12.424683 -43.709948 8.121018 0.000000 0.000000 0.000000 -13.883869 1.455242 1.048851 8.485251 44.665231 -1.472850 -114.298669 16.313542 -21.592077 0.000000 0.000000 0.000000 
0.024551 0.950165 -0.016409 -2.581789 -1.271475 2.335413 6.781561 0.069354 5.236095 -2.005027 0.397879 -10.262054 5.271840 13.507234 15.978546 0.000000 0.000000 0.000000 -1.194034 -0.148344 2.065895 -0.261217 -0.295758 -7.814430 -1.401294 -8.958088 16.467577 0.000000 0.000000 0.000000 -2.528510 0.040023 0.097665 3.477434 0.092952 -29.951103 -2.673765 -1.446934 29.614145 5.541214 -2.662839 -20.810885 0.000000 0.000000 0.000000 -12.082474 10.308350 -5.245962 -48.871684 -3.571192 -6.594530 -14.207939 -45.809334 9.319268 0.000000 0.000000 0.000000 -13.265879 1.768453 1.067729 9.143664 44.483358 -1.219440 -114.524805 16.884820 -22.298669 0.000000 0.000000 0.000000 
0.024928 0.950067 -0.015758 -2.585117 -1.112210 2.130062 6.908815 0.069332 5.482904 -2.067352 0.398030 -10.281288 5.209675 13.443005 16.028512 0.000000 0.000000 0.000000 -1.266847 -0.171479 2.352823 -0.181115 -0.297028 -7.759476 -1.444227 -8.989968 16.393890 0.000000 0.000000 0.000000 -2.529896 0.041033 -0.046187 3.342413 0.103832 -29.716773 -2.531773 -1.282043 29.514727 5.546245 -2.600118 -20.962237 0.000000 0.000000 0.000000 -12.203014 10.509490 -5.401499 -49.212321 -3.359698 -6.705003 -15.806556 -46.868638 10.253254 0.000000 0.000000 0.000000 -12.968043 2.024293 1.084193 9.457823 44.460262 -1.070780 -114.311075 17.499431 -22.899789 0.000000 0.000000 0.000000 
0.025259 0.950092 -0.015376 -2.671412 -0.947013 1.888146 6.998387 0.071165 5.732155 -2.121641 0.398054 -10.331751 5.201537 13.433394 15.887001 0.000000 0.000000 0.000000 -1.279605 -0.179418 2.432798 -0.083982 -0.287977 -7.424282 -1.504595 -9.022198 16.200986 0.000000 0.000000 0.000000 -2.461803 0.038575 -0.080670 3.131329 0.137703 -29.654694 -2.460504 -1.256638 29.646505 5.666569 -2.662196 -20.957776 0.000000 0.000000 0.000000 -12.362199 10.395247 -5.382204 -49.607854 -3.143437 -6.855993 -16.770504 -47.425310 10.834262 0.000000 0.000000 0.000000 -12.974750 2.279910 1.118392 8.953721 44.453377 -1.203848 -113.888499 17.556018 -22.776055 0.000000 0.000000 0.000000 
0.025546 0.950223 -0.015377 -2.578900 -0.685174 1.708647 6.935199 0.077539 5.915969 -2.108152 0.396032 -10.404613 5.019647 13.208296 15.978047 0.000000 0.000000 0.000000 -1.373323 -0.183021 2.508570 -0.025615 -0.284497 -7.255604 -1.595436 -9.169542 16.334127 0.000000 0.000000 0.000000 -2.403751 0.034016 0.011370 2.910050 0.175290 -29.536018 -2.461510 -1.286344 29.553758 5.727514 -2.667806 -21.031791 0.000000 0.000000 0.000000 -12.763673 10.404157 -5.464553 -49.924614 -3.107600 -6.905504 -17.208929 -47.441977 11.018739 0.000000 0.000000 0.000000 -13.595163 2.344367 1.124031 7.958542 44.640641 -1.471398 -112.919103 17.388218 -22.142503 0.000000 0.000000 0.000000 
0.025765 0.950550 -0.015709 -2.560909 -0.530225 1.624848 6.936759 0.078003 6.023011 -2.091638 0.395107 -10.495405 5.041048 13.270744 16.097788 0.000000 0.000000 0.000000 -1.463321 -0.171060 2.413069 0.128487 -0.283198 -7.045345 -1.555971 -9.017452 16.079157 0.000000 0.000000 0.000000 -2.214829 0.030611 0.008178 2.691285 0.212036 -29.433715 -2.585739 -1.250779 29.537785 5.936978 -2.779866 -21.038812 0.000000 0.000000 0.000000 -13.098345 10.252663 -5.454449 -50.324140 -2.961649 -7.023620 -16.843445 -47.543781 10.875470 0.000000 0.000000 0.000000 -14.278647 2.378674 1.118671 6.488697 44.820309 -1.893428 -112.359843 16.978641 -21.383057 0.000000 0.000000 0.000000 
0.025905 0.950857 -0.016219 -2.531411 -0.163859 1.632720 6.965971 0.065301 5.978817 -2.131639 0.392282 -10.532859 4.948400 13.182328 16.152599 0.000000 0.000000 0.000000 -1.483521 -0.160273 2.282018 0.173755 -0.279390 -6.858388 -1.559145 -8.983157 16.149831 0.000000 0.000000 0.000000 -2.055145 0.027181 0.049499 2.337899 0.278966 -29.435111 -2.683051 -1.463150 29.672749 6.056339 -2.844302 -21.165805 0.000000 0.000000 0.000000 -13.329824 10.309580 -5.518778 -50.886213 -2.961983 -7.105768 -16.404397 -47.700017 10.740029 0.000000 0.000000 0.000000 -15.181667 2.276014 1.095475 4.810259 44.730681 -2.397607 -112.039224 16.041470 -20.093031 0.000000 0.000000 0.000000 
0.026003 0.951307 -0.016774 -2.614303 -0.140942 1.684730 6.998532 0.061020 5.972133 -2.201238 0.395646 -10.727263 4.986884 13.247278 16.215568 0.000000 0.000000 0.000000 -1.465197 -0.155913 2.222672 0.275078 -0.281284 -6.783491 -1.442624 -8.758736 16.069721 0.000000 0.000000 0.000000 -1.849852 0.025995 -0.006907 2.262136 0.297701 -29.535776 -2.761307 -1.181590 29.861005 6.143581 -2.845832 -21.255458 0.000000 0.000000 0.000000 -13.573739 10.099387 -5.487557 -51.597099 -3.051876 -7.188155 -15.309532 -47.799955 10.254767 0.000000 0.000000 0.000000 -15.819045 2.132123 1.015821 3.188728 44.473247 -2.824728 -111.562743 15.194773 -18.733903 0.000000 0.000000 0.000000 
0.026082 0.951488 -0.017295 -2.674541 -0.069493 1.749053 7.029831 0.051069 5.807845 -2.147750 0.393430 -10.683476 5.071779 13.375485 16.196170 0.000000 0.000000 0.000000 -1.387541 -0.139259 1.992862 0.248422 -0.269732 -6.496687 -1.521554 -8.871706 16.013654 0.000000 0.000000 0.000000 -1.664972 0.021338 0.081060 1.931127 0.357679 -29.449628 -2.749955 -1.228117 29.814094 6.101992 -2.819464 -21.259110 0.000000 0.000000 0.000000 -14.118146 10.044664 -5.542894 -51.760845 -3.045341 -7.217023 -14.261319 -48.427889 9.937651 0.000000 0.000000 0.000000 -16.381644 2.069847 1.006422 1.315280 43.944354 -3.341495 -111.345142 13.577234 -16.641961 0.000000 0.000000 0.000000 
0.026158 0.951780 -0.017779 -2.735566 0.155113 1.721603 7.180802 0.037287 5.886892 -2.185118 0.393012 -10.846565 4.930078 13.199838 16.251372 0.000000 0.000000 0.000000 -1.249484 -0.143282 1.957994 0.222751 -0.269248 -6.504067 -1.595173 -8.986899 16.117616 0.000000 0.000000 0.000000 -1.520113 0.014936 0.219689 1.793336 0.387677 -29.517270 -2.892995 -1.182721 29.886292 6.058811 -2.769055 -21.237347 0.000000 0.000000 0.000000 -14.472508 9.837020 -5.516513 -52.193443 -3.365214 -7.161015 -12.791746 -48.984872 9.382951 0.000000 0.000000 0.000000 -16.638201 1.805058 0.920519 -0.383851 43.399012 -3.760109 -111.159757 12.570363 -15.294322 0.000000 0.000000 0.000000 
